G04 #@! TF.GenerationSoftware,KiCad,Pcbnew,5.1.5+dfsg1-2build2*
G04 #@! TF.CreationDate,2020-06-25T18:04:22+03:00*
G04 #@! TF.ProjectId,sdr-trx,7364722d-7472-4782-9e6b-696361645f70,A*
G04 #@! TF.SameCoordinates,Original*
G04 #@! TF.FileFunction,Legend,Bot*
G04 #@! TF.FilePolarity,Positive*
%FSLAX46Y46*%
G04 Gerber Fmt 4.6, Leading zero omitted, Abs format (unit mm)*
G04 Created by KiCad (PCBNEW 5.1.5+dfsg1-2build2) date 2020-06-25 18:04:22*
%MOMM*%
%LPD*%
G04 APERTURE LIST*
%ADD10C,0.120000*%
%ADD11C,0.150000*%
G04 APERTURE END LIST*
D10*
X112650000Y-111260000D02*
X119400000Y-111260000D01*
X133350000Y-111260000D02*
X126600000Y-111260000D01*
X133350000Y-34160000D02*
X126600000Y-34160000D01*
X133350000Y-34160000D02*
X133350000Y-111260000D01*
X112650000Y-34160000D02*
X112650000Y-111260000D01*
X112650000Y-34160000D02*
X119400000Y-34160000D01*
X103350000Y-34160000D02*
X96600000Y-34160000D01*
X82650000Y-34160000D02*
X89400000Y-34160000D01*
X82650000Y-111260000D02*
X89400000Y-111260000D01*
X82650000Y-111260000D02*
X82650000Y-34160000D01*
X103350000Y-111260000D02*
X103350000Y-34160000D01*
X103350000Y-111260000D02*
X96600000Y-111260000D01*
X47650000Y-111260000D02*
X54400000Y-111260000D01*
X68350000Y-111260000D02*
X61600000Y-111260000D01*
X68350000Y-34160000D02*
X61600000Y-34160000D01*
X68350000Y-34160000D02*
X68350000Y-111260000D01*
X47650000Y-34160000D02*
X47650000Y-111260000D01*
X47650000Y-34160000D02*
X54400000Y-34160000D01*
D11*
X118331071Y-33138571D02*
X118188214Y-33186190D01*
X118140595Y-33233809D01*
X118092976Y-33329047D01*
X118092976Y-33471904D01*
X118140595Y-33567142D01*
X118188214Y-33614761D01*
X118283452Y-33662380D01*
X118664404Y-33662380D01*
X118664404Y-32662380D01*
X118331071Y-32662380D01*
X118235833Y-32710000D01*
X118188214Y-32757619D01*
X118140595Y-32852857D01*
X118140595Y-32948095D01*
X118188214Y-33043333D01*
X118235833Y-33090952D01*
X118331071Y-33138571D01*
X118664404Y-33138571D01*
X117807261Y-32662380D02*
X117235833Y-32662380D01*
X117521547Y-33662380D02*
X117521547Y-32662380D01*
X116473928Y-32995714D02*
X116473928Y-33662380D01*
X116712023Y-32614761D02*
X116950119Y-33329047D01*
X116331071Y-33329047D01*
X88331071Y-33138571D02*
X88188214Y-33186190D01*
X88140595Y-33233809D01*
X88092976Y-33329047D01*
X88092976Y-33471904D01*
X88140595Y-33567142D01*
X88188214Y-33614761D01*
X88283452Y-33662380D01*
X88664404Y-33662380D01*
X88664404Y-32662380D01*
X88331071Y-32662380D01*
X88235833Y-32710000D01*
X88188214Y-32757619D01*
X88140595Y-32852857D01*
X88140595Y-32948095D01*
X88188214Y-33043333D01*
X88235833Y-33090952D01*
X88331071Y-33138571D01*
X88664404Y-33138571D01*
X87807261Y-32662380D02*
X87235833Y-32662380D01*
X87521547Y-33662380D02*
X87521547Y-32662380D01*
X86997738Y-32662380D02*
X86378690Y-32662380D01*
X86712023Y-33043333D01*
X86569166Y-33043333D01*
X86473928Y-33090952D01*
X86426309Y-33138571D01*
X86378690Y-33233809D01*
X86378690Y-33471904D01*
X86426309Y-33567142D01*
X86473928Y-33614761D01*
X86569166Y-33662380D01*
X86854880Y-33662380D01*
X86950119Y-33614761D01*
X86997738Y-33567142D01*
X53331071Y-33141571D02*
X53188214Y-33189190D01*
X53140595Y-33236809D01*
X53092976Y-33332047D01*
X53092976Y-33474904D01*
X53140595Y-33570142D01*
X53188214Y-33617761D01*
X53283452Y-33665380D01*
X53664404Y-33665380D01*
X53664404Y-32665380D01*
X53331071Y-32665380D01*
X53235833Y-32713000D01*
X53188214Y-32760619D01*
X53140595Y-32855857D01*
X53140595Y-32951095D01*
X53188214Y-33046333D01*
X53235833Y-33093952D01*
X53331071Y-33141571D01*
X53664404Y-33141571D01*
X52807261Y-32665380D02*
X52235833Y-32665380D01*
X52521547Y-33665380D02*
X52521547Y-32665380D01*
X51950119Y-32760619D02*
X51902500Y-32713000D01*
X51807261Y-32665380D01*
X51569166Y-32665380D01*
X51473928Y-32713000D01*
X51426309Y-32760619D01*
X51378690Y-32855857D01*
X51378690Y-32951095D01*
X51426309Y-33093952D01*
X51997738Y-33665380D01*
X51378690Y-33665380D01*
M02*
