G04 #@! TF.GenerationSoftware,KiCad,Pcbnew,5.1.5+dfsg1-2build2*
G04 #@! TF.CreationDate,2020-06-25T18:04:22+03:00*
G04 #@! TF.ProjectId,sdr-trx,7364722d-7472-4782-9e6b-696361645f70,A*
G04 #@! TF.SameCoordinates,Original*
G04 #@! TF.FileFunction,Soldermask,Bot*
G04 #@! TF.FilePolarity,Negative*
%FSLAX46Y46*%
G04 Gerber Fmt 4.6, Leading zero omitted, Abs format (unit mm)*
G04 Created by KiCad (PCBNEW 5.1.5+dfsg1-2build2) date 2020-06-25 18:04:22*
%MOMM*%
%LPD*%
G04 APERTURE LIST*
%ADD10C,0.100000*%
G04 APERTURE END LIST*
D10*
G36*
X44270163Y-152819394D02*
G01*
X44438719Y-152889212D01*
X44590418Y-152990574D01*
X44719426Y-153119582D01*
X44820788Y-153271281D01*
X44890606Y-153439837D01*
X44926200Y-153618778D01*
X44926200Y-153801222D01*
X44890606Y-153980163D01*
X44820788Y-154148719D01*
X44719426Y-154300418D01*
X44590418Y-154429426D01*
X44438719Y-154530788D01*
X44270163Y-154600606D01*
X44091223Y-154636200D01*
X43908777Y-154636200D01*
X43729837Y-154600606D01*
X43561281Y-154530788D01*
X43409582Y-154429426D01*
X43280574Y-154300418D01*
X43179212Y-154148719D01*
X43109394Y-153980163D01*
X43073800Y-153801222D01*
X43073800Y-153618778D01*
X43109394Y-153439837D01*
X43179212Y-153271281D01*
X43280574Y-153119582D01*
X43409582Y-152990574D01*
X43561281Y-152889212D01*
X43729837Y-152819394D01*
X43908777Y-152783800D01*
X44091223Y-152783800D01*
X44270163Y-152819394D01*
G37*
G36*
X37270163Y-152819394D02*
G01*
X37438719Y-152889212D01*
X37590418Y-152990574D01*
X37719426Y-153119582D01*
X37820788Y-153271281D01*
X37890606Y-153439837D01*
X37926200Y-153618778D01*
X37926200Y-153801222D01*
X37890606Y-153980163D01*
X37820788Y-154148719D01*
X37719426Y-154300418D01*
X37590418Y-154429426D01*
X37438719Y-154530788D01*
X37270163Y-154600606D01*
X37091223Y-154636200D01*
X36908777Y-154636200D01*
X36729837Y-154600606D01*
X36561281Y-154530788D01*
X36409582Y-154429426D01*
X36280574Y-154300418D01*
X36179212Y-154148719D01*
X36109394Y-153980163D01*
X36073800Y-153801222D01*
X36073800Y-153618778D01*
X36109394Y-153439837D01*
X36179212Y-153271281D01*
X36280574Y-153119582D01*
X36409582Y-152990574D01*
X36561281Y-152889212D01*
X36729837Y-152819394D01*
X36908777Y-152783800D01*
X37091223Y-152783800D01*
X37270163Y-152819394D01*
G37*
G36*
X61576200Y-116136200D02*
G01*
X54423800Y-116136200D01*
X54423800Y-107983800D01*
X61576200Y-107983800D01*
X61576200Y-116136200D01*
G37*
G36*
X96576200Y-116136200D02*
G01*
X89423800Y-116136200D01*
X89423800Y-107983800D01*
X96576200Y-107983800D01*
X96576200Y-116136200D01*
G37*
G36*
X126576200Y-116136200D02*
G01*
X119423800Y-116136200D01*
X119423800Y-107983800D01*
X126576200Y-107983800D01*
X126576200Y-116136200D01*
G37*
G36*
X66372254Y-107382844D02*
G01*
X66604507Y-107479046D01*
X66813530Y-107618711D01*
X66991289Y-107796470D01*
X67130954Y-108005493D01*
X67227156Y-108237746D01*
X67276200Y-108484305D01*
X67276200Y-108735695D01*
X67227156Y-108982254D01*
X67130954Y-109214507D01*
X66991289Y-109423530D01*
X66813530Y-109601289D01*
X66604507Y-109740954D01*
X66372254Y-109837156D01*
X66125695Y-109886200D01*
X65874305Y-109886200D01*
X65627746Y-109837156D01*
X65395493Y-109740954D01*
X65186470Y-109601289D01*
X65008711Y-109423530D01*
X64869046Y-109214507D01*
X64772844Y-108982254D01*
X64723800Y-108735695D01*
X64723800Y-108484305D01*
X64772844Y-108237746D01*
X64869046Y-108005493D01*
X65008711Y-107796470D01*
X65186470Y-107618711D01*
X65395493Y-107479046D01*
X65627746Y-107382844D01*
X65874305Y-107333800D01*
X66125695Y-107333800D01*
X66372254Y-107382844D01*
G37*
G36*
X131372254Y-107382844D02*
G01*
X131604507Y-107479046D01*
X131813530Y-107618711D01*
X131991289Y-107796470D01*
X132130954Y-108005493D01*
X132227156Y-108237746D01*
X132276200Y-108484305D01*
X132276200Y-108735695D01*
X132227156Y-108982254D01*
X132130954Y-109214507D01*
X131991289Y-109423530D01*
X131813530Y-109601289D01*
X131604507Y-109740954D01*
X131372254Y-109837156D01*
X131125695Y-109886200D01*
X130874305Y-109886200D01*
X130627746Y-109837156D01*
X130395493Y-109740954D01*
X130186470Y-109601289D01*
X130008711Y-109423530D01*
X129869046Y-109214507D01*
X129772844Y-108982254D01*
X129723800Y-108735695D01*
X129723800Y-108484305D01*
X129772844Y-108237746D01*
X129869046Y-108005493D01*
X130008711Y-107796470D01*
X130186470Y-107618711D01*
X130395493Y-107479046D01*
X130627746Y-107382844D01*
X130874305Y-107333800D01*
X131125695Y-107333800D01*
X131372254Y-107382844D01*
G37*
G36*
X85356274Y-98518890D02*
G01*
X85532684Y-98553980D01*
X85865030Y-98691642D01*
X86164135Y-98891498D01*
X86418502Y-99145865D01*
X86618358Y-99444970D01*
X86756020Y-99777316D01*
X86826200Y-100130136D01*
X86826200Y-100489864D01*
X86756020Y-100842684D01*
X86618358Y-101175030D01*
X86418502Y-101474135D01*
X86164135Y-101728502D01*
X85865030Y-101928358D01*
X85532684Y-102066020D01*
X85356274Y-102101110D01*
X85179865Y-102136200D01*
X84820135Y-102136200D01*
X84643726Y-102101110D01*
X84467316Y-102066020D01*
X84134970Y-101928358D01*
X83835865Y-101728502D01*
X83581498Y-101474135D01*
X83381642Y-101175030D01*
X83243980Y-100842684D01*
X83173800Y-100489864D01*
X83173800Y-100130136D01*
X83243980Y-99777316D01*
X83381642Y-99444970D01*
X83581498Y-99145865D01*
X83835865Y-98891498D01*
X84134970Y-98691642D01*
X84467316Y-98553980D01*
X84643726Y-98518890D01*
X84820135Y-98483800D01*
X85179865Y-98483800D01*
X85356274Y-98518890D01*
G37*
G36*
X50356274Y-98518890D02*
G01*
X50532684Y-98553980D01*
X50865030Y-98691642D01*
X51164135Y-98891498D01*
X51418502Y-99145865D01*
X51618358Y-99444970D01*
X51756020Y-99777316D01*
X51826200Y-100130136D01*
X51826200Y-100489864D01*
X51756020Y-100842684D01*
X51618358Y-101175030D01*
X51418502Y-101474135D01*
X51164135Y-101728502D01*
X50865030Y-101928358D01*
X50532684Y-102066020D01*
X50356274Y-102101110D01*
X50179865Y-102136200D01*
X49820135Y-102136200D01*
X49643726Y-102101110D01*
X49467316Y-102066020D01*
X49134970Y-101928358D01*
X48835865Y-101728502D01*
X48581498Y-101474135D01*
X48381642Y-101175030D01*
X48243980Y-100842684D01*
X48173800Y-100489864D01*
X48173800Y-100130136D01*
X48243980Y-99777316D01*
X48381642Y-99444970D01*
X48581498Y-99145865D01*
X48835865Y-98891498D01*
X49134970Y-98691642D01*
X49467316Y-98553980D01*
X49643726Y-98518890D01*
X49820135Y-98483800D01*
X50179865Y-98483800D01*
X50356274Y-98518890D01*
G37*
G36*
X115356274Y-98518890D02*
G01*
X115532684Y-98553980D01*
X115865030Y-98691642D01*
X116164135Y-98891498D01*
X116418502Y-99145865D01*
X116618358Y-99444970D01*
X116756020Y-99777316D01*
X116826200Y-100130136D01*
X116826200Y-100489864D01*
X116756020Y-100842684D01*
X116618358Y-101175030D01*
X116418502Y-101474135D01*
X116164135Y-101728502D01*
X115865030Y-101928358D01*
X115532684Y-102066020D01*
X115356274Y-102101110D01*
X115179865Y-102136200D01*
X114820135Y-102136200D01*
X114643726Y-102101110D01*
X114467316Y-102066020D01*
X114134970Y-101928358D01*
X113835865Y-101728502D01*
X113581498Y-101474135D01*
X113381642Y-101175030D01*
X113243980Y-100842684D01*
X113173800Y-100489864D01*
X113173800Y-100130136D01*
X113243980Y-99777316D01*
X113381642Y-99444970D01*
X113581498Y-99145865D01*
X113835865Y-98891498D01*
X114134970Y-98691642D01*
X114467316Y-98553980D01*
X114643726Y-98518890D01*
X114820135Y-98483800D01*
X115179865Y-98483800D01*
X115356274Y-98518890D01*
G37*
G36*
X269476200Y-93786200D02*
G01*
X265123800Y-93786200D01*
X265123800Y-92283800D01*
X269476200Y-92283800D01*
X269476200Y-93786200D01*
G37*
G36*
X269476200Y-88136200D02*
G01*
X265123800Y-88136200D01*
X265123800Y-86633800D01*
X269476200Y-86633800D01*
X269476200Y-88136200D01*
G37*
G36*
X154397295Y-80402017D02*
G01*
X154677210Y-80517962D01*
X154957127Y-80633907D01*
X155460963Y-80970560D01*
X155889440Y-81399037D01*
X156226093Y-81902873D01*
X156457983Y-82462706D01*
X156576200Y-83057021D01*
X156576200Y-83662979D01*
X156457983Y-84257294D01*
X156226093Y-84817127D01*
X155889440Y-85320963D01*
X155460963Y-85749440D01*
X154957127Y-86086093D01*
X154397295Y-86317983D01*
X153802979Y-86436200D01*
X153197021Y-86436200D01*
X152602705Y-86317983D01*
X152042873Y-86086093D01*
X151539037Y-85749440D01*
X151110560Y-85320963D01*
X150773907Y-84817127D01*
X150542017Y-84257294D01*
X150423800Y-83662979D01*
X150423800Y-83057021D01*
X150542017Y-82462706D01*
X150773907Y-81902873D01*
X151110560Y-81399037D01*
X151539037Y-80970560D01*
X152042873Y-80633907D01*
X152602705Y-80402017D01*
X153197021Y-80283800D01*
X153802979Y-80283800D01*
X154397295Y-80402017D01*
G37*
G36*
X40897295Y-80402017D02*
G01*
X41177210Y-80517962D01*
X41457127Y-80633907D01*
X41960963Y-80970560D01*
X42389440Y-81399037D01*
X42726093Y-81902873D01*
X42957983Y-82462706D01*
X43076200Y-83057021D01*
X43076200Y-83662979D01*
X42957983Y-84257294D01*
X42726093Y-84817127D01*
X42389440Y-85320963D01*
X41960963Y-85749440D01*
X41457127Y-86086093D01*
X40897295Y-86317983D01*
X40302979Y-86436200D01*
X39697021Y-86436200D01*
X39102705Y-86317983D01*
X38542873Y-86086093D01*
X38039037Y-85749440D01*
X37610560Y-85320963D01*
X37273907Y-84817127D01*
X37042017Y-84257294D01*
X36923800Y-83662979D01*
X36923800Y-83057021D01*
X37042017Y-82462706D01*
X37273907Y-81902873D01*
X37610560Y-81399037D01*
X38039037Y-80970560D01*
X38542873Y-80633907D01*
X38822790Y-80517962D01*
X39102705Y-80402017D01*
X39697021Y-80283800D01*
X40302979Y-80283800D01*
X40897295Y-80402017D01*
G37*
G36*
X44270163Y-71819394D02*
G01*
X44438719Y-71889212D01*
X44590418Y-71990574D01*
X44719426Y-72119582D01*
X44820788Y-72271281D01*
X44890606Y-72439837D01*
X44926200Y-72618778D01*
X44926200Y-72801222D01*
X44890606Y-72980163D01*
X44820788Y-73148719D01*
X44719426Y-73300418D01*
X44590418Y-73429426D01*
X44438719Y-73530788D01*
X44270163Y-73600606D01*
X44091223Y-73636200D01*
X43908777Y-73636200D01*
X43729837Y-73600606D01*
X43561281Y-73530788D01*
X43409582Y-73429426D01*
X43280574Y-73300418D01*
X43179212Y-73148719D01*
X43109394Y-72980163D01*
X43073800Y-72801222D01*
X43073800Y-72618778D01*
X43109394Y-72439837D01*
X43179212Y-72271281D01*
X43280574Y-72119582D01*
X43409582Y-71990574D01*
X43561281Y-71889212D01*
X43729837Y-71819394D01*
X43908777Y-71783800D01*
X44091223Y-71783800D01*
X44270163Y-71819394D01*
G37*
G36*
X37270163Y-71819394D02*
G01*
X37438719Y-71889212D01*
X37590418Y-71990574D01*
X37719426Y-72119582D01*
X37820788Y-72271281D01*
X37890606Y-72439837D01*
X37926200Y-72618778D01*
X37926200Y-72801222D01*
X37890606Y-72980163D01*
X37820788Y-73148719D01*
X37719426Y-73300418D01*
X37590418Y-73429426D01*
X37438719Y-73530788D01*
X37270163Y-73600606D01*
X37091223Y-73636200D01*
X36908777Y-73636200D01*
X36729837Y-73600606D01*
X36561281Y-73530788D01*
X36409582Y-73429426D01*
X36280574Y-73300418D01*
X36179212Y-73148719D01*
X36109394Y-72980163D01*
X36073800Y-72801222D01*
X36073800Y-72618778D01*
X36109394Y-72439837D01*
X36179212Y-72271281D01*
X36280574Y-72119582D01*
X36409582Y-71990574D01*
X36561281Y-71889212D01*
X36729837Y-71819394D01*
X36908777Y-71783800D01*
X37091223Y-71783800D01*
X37270163Y-71819394D01*
G37*
G36*
X44270163Y-59819394D02*
G01*
X44438719Y-59889212D01*
X44590418Y-59990574D01*
X44719426Y-60119582D01*
X44820788Y-60271281D01*
X44890606Y-60439837D01*
X44926200Y-60618778D01*
X44926200Y-60801222D01*
X44890606Y-60980163D01*
X44820788Y-61148719D01*
X44719426Y-61300418D01*
X44590418Y-61429426D01*
X44438719Y-61530788D01*
X44270163Y-61600606D01*
X44180692Y-61618403D01*
X44091223Y-61636200D01*
X43908777Y-61636200D01*
X43819308Y-61618403D01*
X43729837Y-61600606D01*
X43561281Y-61530788D01*
X43409582Y-61429426D01*
X43280574Y-61300418D01*
X43179212Y-61148719D01*
X43109394Y-60980163D01*
X43073800Y-60801222D01*
X43073800Y-60618778D01*
X43109394Y-60439837D01*
X43179212Y-60271281D01*
X43280574Y-60119582D01*
X43409582Y-59990574D01*
X43561281Y-59889212D01*
X43729837Y-59819394D01*
X43908777Y-59783800D01*
X44091223Y-59783800D01*
X44270163Y-59819394D01*
G37*
G36*
X37270163Y-59819394D02*
G01*
X37438719Y-59889212D01*
X37590418Y-59990574D01*
X37719426Y-60119582D01*
X37820788Y-60271281D01*
X37890606Y-60439837D01*
X37926200Y-60618778D01*
X37926200Y-60801222D01*
X37890606Y-60980163D01*
X37820788Y-61148719D01*
X37719426Y-61300418D01*
X37590418Y-61429426D01*
X37438719Y-61530788D01*
X37270163Y-61600606D01*
X37180692Y-61618403D01*
X37091223Y-61636200D01*
X36908777Y-61636200D01*
X36819308Y-61618403D01*
X36729837Y-61600606D01*
X36561281Y-61530788D01*
X36409582Y-61429426D01*
X36280574Y-61300418D01*
X36179212Y-61148719D01*
X36109394Y-60980163D01*
X36073800Y-60801222D01*
X36073800Y-60618778D01*
X36109394Y-60439837D01*
X36179212Y-60271281D01*
X36280574Y-60119582D01*
X36409582Y-59990574D01*
X36561281Y-59889212D01*
X36729837Y-59819394D01*
X36908777Y-59783800D01*
X37091223Y-59783800D01*
X37270163Y-59819394D01*
G37*
G36*
X44270163Y-47819394D02*
G01*
X44438719Y-47889212D01*
X44590418Y-47990574D01*
X44719426Y-48119582D01*
X44820788Y-48271281D01*
X44890606Y-48439837D01*
X44926200Y-48618778D01*
X44926200Y-48801222D01*
X44890606Y-48980163D01*
X44820788Y-49148719D01*
X44719426Y-49300418D01*
X44590418Y-49429426D01*
X44438719Y-49530788D01*
X44270163Y-49600606D01*
X44180692Y-49618403D01*
X44091223Y-49636200D01*
X43908777Y-49636200D01*
X43819308Y-49618403D01*
X43729837Y-49600606D01*
X43561281Y-49530788D01*
X43409582Y-49429426D01*
X43280574Y-49300418D01*
X43179212Y-49148719D01*
X43109394Y-48980163D01*
X43073800Y-48801222D01*
X43073800Y-48618778D01*
X43109394Y-48439837D01*
X43179212Y-48271281D01*
X43280574Y-48119582D01*
X43409582Y-47990574D01*
X43561281Y-47889212D01*
X43729837Y-47819394D01*
X43908777Y-47783800D01*
X44091223Y-47783800D01*
X44270163Y-47819394D01*
G37*
G36*
X37270163Y-47819394D02*
G01*
X37438719Y-47889212D01*
X37590418Y-47990574D01*
X37719426Y-48119582D01*
X37820788Y-48271281D01*
X37890606Y-48439837D01*
X37926200Y-48618778D01*
X37926200Y-48801222D01*
X37890606Y-48980163D01*
X37820788Y-49148719D01*
X37719426Y-49300418D01*
X37590418Y-49429426D01*
X37438719Y-49530788D01*
X37270163Y-49600606D01*
X37180692Y-49618403D01*
X37091223Y-49636200D01*
X36908777Y-49636200D01*
X36819308Y-49618403D01*
X36729837Y-49600606D01*
X36561281Y-49530788D01*
X36409582Y-49429426D01*
X36280574Y-49300418D01*
X36179212Y-49148719D01*
X36109394Y-48980163D01*
X36073800Y-48801222D01*
X36073800Y-48618778D01*
X36109394Y-48439837D01*
X36179212Y-48271281D01*
X36280574Y-48119582D01*
X36409582Y-47990574D01*
X36561281Y-47889212D01*
X36729837Y-47819394D01*
X36908777Y-47783800D01*
X37091223Y-47783800D01*
X37270163Y-47819394D01*
G37*
G36*
X268513916Y-46675158D02*
G01*
X268709772Y-46756284D01*
X268886038Y-46874061D01*
X269035939Y-47023962D01*
X269153716Y-47200228D01*
X269234842Y-47396084D01*
X269276200Y-47604004D01*
X269276200Y-47815996D01*
X269234842Y-48023916D01*
X269153716Y-48219772D01*
X269035939Y-48396038D01*
X268886038Y-48545939D01*
X268709772Y-48663716D01*
X268513916Y-48744842D01*
X268305996Y-48786200D01*
X268094004Y-48786200D01*
X267886084Y-48744842D01*
X267690228Y-48663716D01*
X267513962Y-48545939D01*
X267364061Y-48396038D01*
X267246284Y-48219772D01*
X267165158Y-48023916D01*
X267123800Y-47815996D01*
X267123800Y-47604004D01*
X267165158Y-47396084D01*
X267246284Y-47200228D01*
X267364061Y-47023962D01*
X267513962Y-46874061D01*
X267690228Y-46756284D01*
X267886084Y-46675158D01*
X268094004Y-46633800D01*
X268305996Y-46633800D01*
X268513916Y-46675158D01*
G37*
G36*
X66356274Y-43318890D02*
G01*
X66532684Y-43353980D01*
X66865030Y-43491642D01*
X67164135Y-43691498D01*
X67418502Y-43945865D01*
X67618358Y-44244970D01*
X67756020Y-44577316D01*
X67826200Y-44930136D01*
X67826200Y-45289864D01*
X67756020Y-45642684D01*
X67618358Y-45975030D01*
X67418502Y-46274135D01*
X67164135Y-46528502D01*
X66865030Y-46728358D01*
X66532684Y-46866020D01*
X66356274Y-46901110D01*
X66179865Y-46936200D01*
X65820135Y-46936200D01*
X65643726Y-46901110D01*
X65467316Y-46866020D01*
X65134970Y-46728358D01*
X64835865Y-46528502D01*
X64581498Y-46274135D01*
X64381642Y-45975030D01*
X64243980Y-45642684D01*
X64173800Y-45289864D01*
X64173800Y-44930136D01*
X64243980Y-44577316D01*
X64381642Y-44244970D01*
X64581498Y-43945865D01*
X64835865Y-43691498D01*
X65134970Y-43491642D01*
X65467316Y-43353980D01*
X65643726Y-43318890D01*
X65820135Y-43283800D01*
X66179865Y-43283800D01*
X66356274Y-43318890D01*
G37*
G36*
X131356274Y-43318890D02*
G01*
X131532684Y-43353980D01*
X131865030Y-43491642D01*
X132164135Y-43691498D01*
X132418502Y-43945865D01*
X132618358Y-44244970D01*
X132756020Y-44577316D01*
X132826200Y-44930136D01*
X132826200Y-45289864D01*
X132756020Y-45642684D01*
X132618358Y-45975030D01*
X132418502Y-46274135D01*
X132164135Y-46528502D01*
X131865030Y-46728358D01*
X131532684Y-46866020D01*
X131356274Y-46901110D01*
X131179865Y-46936200D01*
X130820135Y-46936200D01*
X130643726Y-46901110D01*
X130467316Y-46866020D01*
X130134970Y-46728358D01*
X129835865Y-46528502D01*
X129581498Y-46274135D01*
X129381642Y-45975030D01*
X129243980Y-45642684D01*
X129173800Y-45289864D01*
X129173800Y-44930136D01*
X129243980Y-44577316D01*
X129381642Y-44244970D01*
X129581498Y-43945865D01*
X129835865Y-43691498D01*
X130134970Y-43491642D01*
X130467316Y-43353980D01*
X130643726Y-43318890D01*
X130820135Y-43283800D01*
X131179865Y-43283800D01*
X131356274Y-43318890D01*
G37*
G36*
X101356274Y-43318890D02*
G01*
X101532684Y-43353980D01*
X101865030Y-43491642D01*
X102164135Y-43691498D01*
X102418502Y-43945865D01*
X102618358Y-44244970D01*
X102756020Y-44577316D01*
X102826200Y-44930136D01*
X102826200Y-45289864D01*
X102756020Y-45642684D01*
X102618358Y-45975030D01*
X102418502Y-46274135D01*
X102164135Y-46528502D01*
X101865030Y-46728358D01*
X101532684Y-46866020D01*
X101356274Y-46901110D01*
X101179865Y-46936200D01*
X100820135Y-46936200D01*
X100643726Y-46901110D01*
X100467316Y-46866020D01*
X100134970Y-46728358D01*
X99835865Y-46528502D01*
X99581498Y-46274135D01*
X99381642Y-45975030D01*
X99243980Y-45642684D01*
X99173800Y-45289864D01*
X99173800Y-44930136D01*
X99243980Y-44577316D01*
X99381642Y-44244970D01*
X99581498Y-43945865D01*
X99835865Y-43691498D01*
X100134970Y-43491642D01*
X100467316Y-43353980D01*
X100643726Y-43318890D01*
X100820135Y-43283800D01*
X101179865Y-43283800D01*
X101356274Y-43318890D01*
G37*
G36*
X40897295Y-35102017D02*
G01*
X41457127Y-35333907D01*
X41960963Y-35670560D01*
X42389440Y-36099037D01*
X42726093Y-36602873D01*
X42726093Y-36602874D01*
X42957983Y-37162705D01*
X42961872Y-37182255D01*
X43076200Y-37757021D01*
X43076200Y-38362979D01*
X42957983Y-38957294D01*
X42726093Y-39517127D01*
X42389440Y-40020963D01*
X41960963Y-40449440D01*
X41457127Y-40786093D01*
X41177210Y-40902038D01*
X40897295Y-41017983D01*
X40302979Y-41136200D01*
X39697021Y-41136200D01*
X39102705Y-41017983D01*
X38822790Y-40902038D01*
X38542873Y-40786093D01*
X38039037Y-40449440D01*
X37610560Y-40020963D01*
X37273907Y-39517127D01*
X37042017Y-38957294D01*
X36923800Y-38362979D01*
X36923800Y-37757021D01*
X37038128Y-37182255D01*
X37042017Y-37162705D01*
X37273907Y-36602874D01*
X37273907Y-36602873D01*
X37610560Y-36099037D01*
X38039037Y-35670560D01*
X38542873Y-35333907D01*
X39102705Y-35102017D01*
X39697021Y-34983800D01*
X40302979Y-34983800D01*
X40897295Y-35102017D01*
G37*
G36*
X154397295Y-35102017D02*
G01*
X154957127Y-35333907D01*
X155460963Y-35670560D01*
X155889440Y-36099037D01*
X156226093Y-36602873D01*
X156226093Y-36602874D01*
X156457983Y-37162705D01*
X156461872Y-37182255D01*
X156576200Y-37757021D01*
X156576200Y-38362979D01*
X156457983Y-38957294D01*
X156226093Y-39517127D01*
X155889440Y-40020963D01*
X155460963Y-40449440D01*
X154957127Y-40786093D01*
X154677210Y-40902038D01*
X154397295Y-41017983D01*
X153802979Y-41136200D01*
X153197021Y-41136200D01*
X152602705Y-41017983D01*
X152322790Y-40902038D01*
X152042873Y-40786093D01*
X151539037Y-40449440D01*
X151110560Y-40020963D01*
X150773907Y-39517127D01*
X150542017Y-38957294D01*
X150423800Y-38362979D01*
X150423800Y-37757021D01*
X150538128Y-37182255D01*
X150542017Y-37162705D01*
X150773907Y-36602874D01*
X150773907Y-36602873D01*
X151110560Y-36099037D01*
X151539037Y-35670560D01*
X152042873Y-35333907D01*
X152602705Y-35102017D01*
X153197021Y-34983800D01*
X153802979Y-34983800D01*
X154397295Y-35102017D01*
G37*
G36*
X85372254Y-35582844D02*
G01*
X85604507Y-35679046D01*
X85813530Y-35818711D01*
X85991289Y-35996470D01*
X86130954Y-36205493D01*
X86227156Y-36437746D01*
X86276200Y-36684305D01*
X86276200Y-36935695D01*
X86227156Y-37182254D01*
X86130954Y-37414507D01*
X85991289Y-37623530D01*
X85813530Y-37801289D01*
X85604507Y-37940954D01*
X85372254Y-38037156D01*
X85125695Y-38086200D01*
X84874305Y-38086200D01*
X84627746Y-38037156D01*
X84395493Y-37940954D01*
X84186470Y-37801289D01*
X84008711Y-37623530D01*
X83869046Y-37414507D01*
X83772844Y-37182254D01*
X83723800Y-36935695D01*
X83723800Y-36684305D01*
X83772844Y-36437746D01*
X83869046Y-36205493D01*
X84008711Y-35996470D01*
X84186470Y-35818711D01*
X84395493Y-35679046D01*
X84627746Y-35582844D01*
X84874305Y-35533800D01*
X85125695Y-35533800D01*
X85372254Y-35582844D01*
G37*
G36*
X126576200Y-37436200D02*
G01*
X119423800Y-37436200D01*
X119423800Y-29283800D01*
X126576200Y-29283800D01*
X126576200Y-37436200D01*
G37*
G36*
X96576200Y-37436200D02*
G01*
X89423800Y-37436200D01*
X89423800Y-29283800D01*
X96576200Y-29283800D01*
X96576200Y-37436200D01*
G37*
G36*
X61576200Y-37436200D02*
G01*
X54423800Y-37436200D01*
X54423800Y-29283800D01*
X61576200Y-29283800D01*
X61576200Y-37436200D01*
G37*
G36*
X36255578Y-25867471D02*
G01*
X36415037Y-25933521D01*
X36558545Y-26029411D01*
X36680589Y-26151455D01*
X36776479Y-26294963D01*
X36842529Y-26454422D01*
X36876200Y-26623702D01*
X36876200Y-26796298D01*
X36842529Y-26965578D01*
X36776479Y-27125037D01*
X36680589Y-27268545D01*
X36558545Y-27390589D01*
X36415037Y-27486479D01*
X36255578Y-27552529D01*
X36086298Y-27586200D01*
X35913702Y-27586200D01*
X35744422Y-27552529D01*
X35584963Y-27486479D01*
X35441455Y-27390589D01*
X35319411Y-27268545D01*
X35223521Y-27125037D01*
X35157471Y-26965578D01*
X35123800Y-26796298D01*
X35123800Y-26623702D01*
X35157471Y-26454422D01*
X35223521Y-26294963D01*
X35319411Y-26151455D01*
X35441455Y-26029411D01*
X35584963Y-25933521D01*
X35744422Y-25867471D01*
X35913702Y-25833800D01*
X36086298Y-25833800D01*
X36255578Y-25867471D01*
G37*
G36*
X41755578Y-25867471D02*
G01*
X41915037Y-25933521D01*
X42058545Y-26029411D01*
X42180589Y-26151455D01*
X42276479Y-26294963D01*
X42342529Y-26454422D01*
X42376200Y-26623702D01*
X42376200Y-26796298D01*
X42342529Y-26965578D01*
X42276479Y-27125037D01*
X42180589Y-27268545D01*
X42058545Y-27390589D01*
X41915037Y-27486479D01*
X41755578Y-27552529D01*
X41586298Y-27586200D01*
X41413702Y-27586200D01*
X41244422Y-27552529D01*
X41084963Y-27486479D01*
X40941455Y-27390589D01*
X40819411Y-27268545D01*
X40723521Y-27125037D01*
X40657471Y-26965578D01*
X40623800Y-26796298D01*
X40623800Y-26623702D01*
X40657471Y-26454422D01*
X40723521Y-26294963D01*
X40819411Y-26151455D01*
X40941455Y-26029411D01*
X41084963Y-25933521D01*
X41244422Y-25867471D01*
X41413702Y-25833800D01*
X41586298Y-25833800D01*
X41755578Y-25867471D01*
G37*
M02*
