M48
; DRILL file {KiCad 5.1.5+dfsg1-2build2} date Thu 25 Jun 2020 06:04:30 PM EEST
; FORMAT={-:-/ absolute / metric / decimal}
; #@! TF.CreationDate,2020-06-25T18:04:30+03:00
; #@! TF.GenerationSoftware,Kicad,Pcbnew,5.1.5+dfsg1-2build2
FMAT,2
METRIC
T1C0.400
T2C3.510
T3C1.600
T4C1.700
T5C2.000
T6C2.400
T7C3.500
%
G90
G05
T1
X35.7Y-47.01
X36.5Y-132.61
X36.6Y-116.81
X36.6Y-122.41
X36.7Y-134.71
X37.1Y-138.91
X37.6Y-74.61
X37.9Y-92.81
X37.9Y-94.11
X37.9Y-95.41
X38.1Y-122.41
X38.9Y-116.51
X39.0Y-131.71
X39.1Y-110.31
X40.2Y-122.81
X41.5Y-161.21
X41.6Y-53.51
X42.6Y-158.21
X43.3Y-32.21
X44.25Y-123.06
X45.35Y-118.06
X45.7Y-56.01
X45.7Y-67.91
X45.9Y-79.61
X46.0Y-129.71
X47.2Y-101.01
X48.4Y-102.61
X48.4Y-158.21
X49.0Y-133.21
X49.5Y-52.41
X49.6Y-64.41
X50.0Y-140.71
X50.5Y-133.21
X51.0Y-140.71
X51.0Y-141.71
X51.6Y-120.31
X51.7Y-94.71
X53.0Y-23.46
X53.2Y-91.51
X53.5Y-99.41
X53.5Y-150.71
X53.75Y-23.46
X54.1Y-95.11
X54.1Y-102.31
X54.1Y-104.11
X54.5Y-23.46
X54.5Y-159.21
X55.2Y-45.41
X55.25Y-23.46
X55.4Y-105.51
X55.42Y-99.41
X55.5Y-39.51
X56.85Y-93.31
X56.85Y-105.31
X58.0Y-43.21
X58.0Y-136.71
X58.0Y-141.71
X58.5Y-41.71
X58.5Y-159.21
X58.6Y-76.11
X58.75Y-23.71
X58.75Y-103.51
X59.15Y-93.66
X59.35Y-106.31
X59.5Y-136.71
X59.5Y-141.71
X59.9Y-121.11
X60.225Y-97.235
X60.4Y-80.01
X60.4Y-85.61
X60.45Y-103.96
X60.5Y-41.46
X61.7Y-105.31
X61.8Y-106.71
X62.0Y-142.11
X62.5Y-92.51
X62.65Y-96.11
X63.0Y-94.11
X63.2Y-79.31
X63.2Y-158.31
X63.25Y-88.06
X63.5Y-110.71
X63.7Y-106.31
X64.25Y-36.46
X64.25Y-38.46
X64.5Y-88.41
X65.2Y-95.51
X66.1Y-94.61
X66.3Y-115.21
X66.9Y-88.81
X67.1Y-113.21
X67.3Y-136.81
X67.5Y-99.51
X67.6Y-96.31
X68.4Y-123.81
X68.8Y-89.71
X68.9Y-78.51
X69.0Y-88.21
X69.1Y-138.11
X69.5Y-25.71
X69.5Y-82.235
X70.1Y-96.31
X70.4Y-89.41
X70.5Y-78.51
X70.5Y-160.21
X70.6Y-91.71
X70.7Y-94.01
X71.175Y-97.885
X71.5Y-147.21
X71.9Y-39.71
X72.0Y-35.71
X72.0Y-78.71
X72.7Y-83.71
X73.25Y-23.96
X73.5Y-71.11
X73.8Y-91.61
X73.9Y-41.31
X74.0Y-101.91
X74.6Y-96.21
X75.5Y-92.11
X75.6Y-71.81
X76.3Y-35.66
X76.5Y-108.41
X76.75Y-25.21
X76.9Y-92.01
X77.5Y-25.21
X78.25Y-25.21
X78.6Y-71.51
X78.6Y-79.91
X79.0Y-21.71
X79.0Y-25.21
X79.2Y-83.21
X80.425Y-88.435
X81.4Y-105.91
X81.5Y-115.31
X81.9Y-109.81
X84.3Y-90.31
X84.3Y-116.21
X85.4Y-82.21
X85.5Y-71.71
X85.5Y-73.71
X85.5Y-78.71
X85.5Y-80.21
X86.3Y-157.41
X87.2Y-156.61
X87.5Y-91.21
X88.8Y-73.71
X89.4Y-69.41
X89.4Y-72.31
X89.8Y-91.11
X90.8Y-69.91
X91.5Y-27.71
X91.5Y-87.51
X91.6Y-69.21
X91.6Y-96.61
X92.0Y-21.21
X92.7Y-57.11
X93.0Y-25.41
X93.1Y-91.81
X94.8Y-89.21
X95.0Y-26.46
X95.1Y-54.61
X95.2Y-96.21
X96.25Y-135.21
X96.3Y-122.01
X96.5Y-149.96
X97.0Y-62.01
X97.0Y-63.21
X97.6Y-94.31
X97.7Y-88.31
X98.0Y-115.71
X98.1Y-141.71
X98.7Y-29.91
X98.9Y-37.41
X99.3Y-102.51
X100.5Y-102.51
X100.5Y-121.81
X101.275Y-20.685
X101.5Y-144.31
X101.7Y-102.51
X102.0Y-132.51
X102.0Y-137.81
X102.2Y-145.81
X102.7Y-120.81
X102.8Y-102.51
X102.9Y-122.71
X103.5Y-145.81
X103.6Y-62.01
X103.6Y-63.21
X104.1Y-38.46
X104.25Y-26.71
X104.8Y-142.61
X104.9Y-125.41
X106.0Y-100.61
X106.5Y-147.21
X107.6Y-32.21
X107.9Y-36.51
X108.2Y-21.71
X108.5Y-28.21
X108.7Y-118.71
X109.2Y-143.01
X109.7Y-116.01
X109.7Y-117.81
X109.9Y-114.31
X110.2Y-120.31
X110.2Y-140.71
X110.7Y-116.61
X111.3Y-114.61
X111.4Y-40.66
X112.1Y-128.81
X112.2Y-109.51
X113.0Y-20.21
X113.4Y-103.41
X114.7Y-120.41
X114.7Y-133.71
X114.9Y-108.41
X115.25Y-22.96
X115.5Y-78.81
X115.5Y-114.21
X115.5Y-130.01
X115.7Y-44.31
X116.6Y-116.11
X117.1Y-138.41
X117.8Y-114.91
X117.9Y-44.31
X118.0Y-117.01
X118.4Y-54.81
X118.9Y-81.31
X119.4Y-41.16
X119.4Y-141.81
X119.6Y-89.11
X119.6Y-134.31
X120.1Y-56.01
X120.5Y-103.91
X120.5Y-125.61
X120.8Y-133.81
X121.5Y-147.91
X121.8Y-54.91
X121.8Y-139.01
X122.4Y-125.61
X122.5Y-133.01
X122.9Y-38.61
X123.1Y-56.01
X123.6Y-139.11
X124.0Y-90.51
X124.0Y-102.71
X124.2Y-56.01
X124.4Y-105.41
X124.75Y-21.96
X124.75Y-27.96
X124.8Y-123.61
X125.5Y-21.96
X125.5Y-27.96
X125.6Y-90.41
X125.65Y-39.16
X125.9Y-158.81
X126.0Y-102.71
X126.25Y-21.96
X126.25Y-27.96
X127.0Y-21.96
X127.0Y-27.96
X127.0Y-90.71
X127.2Y-126.61
X127.2Y-139.41
X127.5Y-101.21
X128.0Y-145.21
X128.3Y-137.71
X128.4Y-107.11
X128.7Y-53.01
X129.1Y-51.71
X129.8Y-129.71
X129.9Y-138.11
X130.7Y-127.01
X130.9Y-104.41
X131.2Y-88.21
X131.4Y-40.91
X131.475Y-137.635
X131.7Y-86.61
X131.7Y-145.21
X132.3Y-83.71
X132.4Y-123.81
X132.8Y-50.71
X133.6Y-141.51
X133.7Y-33.11
X133.7Y-35.81
X134.7Y-40.91
X134.8Y-133.91
X135.0Y-64.21
X135.0Y-65.61
X135.0Y-67.11
X135.0Y-68.71
X135.0Y-70.21
X135.23Y-116.28
X135.8Y-35.11
X136.1Y-31.81
X136.4Y-90.71
X137.2Y-81.71
X137.5Y-40.71
X137.8Y-112.11
X137.8Y-120.41
X138.0Y-101.21
X138.5Y-47.71
X138.5Y-74.41
X138.5Y-75.41
X139.0Y-105.71
X139.1Y-146.71
X139.2Y-123.51
X139.5Y-135.31
X139.6Y-141.61
X139.9Y-28.01
X140.0Y-89.01
X140.2Y-86.41
X140.4Y-85.21
X140.4Y-91.71
X140.8Y-40.61
X141.0Y-141.61
X141.5Y-89.71
X141.8Y-40.61
X141.8Y-80.71
X141.9Y-32.11
X142.5Y-113.81
X142.5Y-141.71
X143.5Y-47.71
X143.5Y-74.41
X143.5Y-75.31
X143.5Y-92.81
X143.5Y-130.31
X143.5Y-134.21
X144.8Y-43.31
X145.1Y-86.41
X145.2Y-87.71
X145.2Y-125.21
X145.3Y-107.21
X145.4Y-37.41
X145.6Y-109.21
X147.0Y-68.21
X147.5Y-106.71
X147.8Y-100.51
X148.0Y-68.21
X148.0Y-118.21
X148.1Y-136.51
X148.2Y-138.91
X148.3Y-94.11
X148.4Y-90.31
X148.5Y-33.01
X149.0Y-68.21
X149.0Y-102.31
X149.1Y-114.21
X149.4Y-133.71
X149.4Y-141.71
X150.1Y-45.51
X150.4Y-73.11
X151.0Y-102.21
X151.0Y-123.61
X151.2Y-46.51
X151.2Y-47.81
X151.2Y-69.71
X151.3Y-73.11
X151.5Y-130.41
X151.5Y-144.91
X152.2Y-117.01
X152.3Y-104.71
X152.4Y-68.61
X153.2Y-140.71
X153.4Y-88.61
X154.4Y-110.51
X154.4Y-116.21
X154.6Y-112.21
X155.2Y-46.21
X155.2Y-88.61
X155.3Y-123.01
X155.6Y-121.81
X155.75Y-135.21
X155.8Y-108.61
X156.3Y-71.11
X156.3Y-78.11
X156.5Y-116.71
X156.6Y-123.01
X157.0Y-132.21
X157.2Y-44.71
X157.3Y-143.21
X157.9Y-39.61
X157.9Y-42.41
X157.9Y-121.31
X157.9Y-123.11
X158.5Y-73.81
X158.5Y-83.41
X158.5Y-90.71
X158.8Y-146.21
X159.0Y-148.71
X159.135Y-121.375
X159.9Y-87.51
X160.4Y-121.41
X160.4Y-123.11
X160.5Y-138.01
X161.4Y-143.21
X161.7Y-121.31
X162.0Y-39.71
X162.0Y-40.71
X162.0Y-41.71
X162.5Y-38.21
X162.5Y-48.21
X162.5Y-100.71
X163.0Y-126.41
X163.1Y-121.71
X163.5Y-38.21
X163.5Y-48.21
X163.5Y-95.51
X163.5Y-143.21
X163.6Y-85.61
X163.6Y-93.21
X164.0Y-112.21
X164.5Y-28.21
X164.5Y-38.21
X164.5Y-48.21
X164.8Y-70.21
X165.5Y-28.21
X165.6Y-130.71
X166.0Y-129.21
X166.4Y-140.51
X166.5Y-28.21
X166.75Y-58.71
X166.9Y-132.31
X167.1Y-83.91
X167.75Y-58.71
X168.6Y-143.71
X169.0Y-123.91
X169.5Y-58.71
X169.5Y-115.71
X169.9Y-135.21
X170.2Y-100.11
X170.5Y-58.71
X170.5Y-63.71
X170.5Y-64.71
X170.5Y-73.71
X170.5Y-74.71
X170.5Y-87.51
X170.5Y-88.61
X170.5Y-140.21
X170.6Y-119.11
X170.6Y-136.51
X170.6Y-138.41
X170.8Y-66.91
X171.0Y-76.81
X171.3Y-139.41
X171.5Y-30.21
X171.5Y-31.71
X171.5Y-33.21
X171.5Y-34.71
X171.5Y-36.21
X171.5Y-40.21
X171.5Y-41.71
X171.5Y-43.21
X171.5Y-44.71
X171.5Y-46.21
X171.5Y-63.71
X171.5Y-64.71
X171.5Y-73.71
X171.5Y-74.71
X171.6Y-135.91
X171.6Y-141.61
X171.7Y-134.01
X171.8Y-86.61
X172.0Y-95.21
X172.1Y-82.81
X172.5Y-63.71
X172.5Y-64.71
X172.5Y-73.71
X172.5Y-74.71
X173.0Y-30.21
X173.0Y-31.71
X173.0Y-33.21
X173.0Y-34.71
X173.0Y-36.21
X173.0Y-40.21
X173.0Y-41.71
X173.0Y-43.21
X173.0Y-44.71
X173.0Y-46.21
X173.1Y-145.81
X173.1Y-147.81
X173.5Y-55.21
X173.5Y-58.71
X173.5Y-63.71
X173.5Y-64.71
X173.5Y-73.71
X173.5Y-74.71
X173.9Y-28.21
X174.5Y-30.21
X174.5Y-31.71
X174.5Y-33.21
X174.5Y-34.71
X174.5Y-36.21
X174.5Y-40.21
X174.5Y-41.71
X174.5Y-43.21
X174.5Y-44.71
X174.5Y-46.21
X174.5Y-55.21
X174.5Y-58.71
X174.5Y-64.21
X174.5Y-74.21
X174.5Y-101.21
X175.3Y-93.31
X175.5Y-61.21
X175.5Y-64.21
X175.5Y-74.21
X175.5Y-101.21
X176.0Y-30.21
X176.0Y-31.71
X176.0Y-33.21
X176.0Y-34.71
X176.0Y-36.21
X176.0Y-40.21
X176.0Y-41.71
X176.0Y-43.21
X176.0Y-44.71
X176.0Y-46.21
X176.5Y-64.21
X176.5Y-74.21
X176.5Y-101.21
X176.5Y-124.71
X176.5Y-129.71
X176.5Y-132.21
X176.975Y-143.735
X177.0Y-120.71
X177.1Y-70.71
X177.5Y-30.21
X177.5Y-31.71
X177.5Y-33.21
X177.5Y-34.71
X177.5Y-36.21
X177.5Y-40.21
X177.5Y-41.71
X177.5Y-43.21
X177.5Y-44.71
X177.5Y-46.21
X177.5Y-67.21
X177.5Y-68.21
X177.5Y-69.21
X178.9Y-108.21
X179.5Y-75.71
X180.0Y-34.21
X180.2Y-108.11
X180.3Y-126.31
X180.5Y-87.71
X180.6Y-99.61
X180.7Y-38.11
X180.7Y-47.01
X180.7Y-57.21
X180.7Y-130.01
X180.8Y-127.51
X180.9Y-111.01
X181.0Y-43.01
X181.0Y-84.11
X181.1Y-119.21
X181.2Y-112.41
X182.0Y-120.11
X182.0Y-137.31
X182.1Y-130.11
X182.9Y-142.01
X184.1Y-78.11
X184.1Y-137.31
X184.7Y-105.21
X184.8Y-107.21
X184.8Y-122.21
X185.2Y-77.11
X185.2Y-79.21
X185.4Y-109.61
X185.5Y-38.21
X185.5Y-48.21
X185.5Y-58.21
X185.5Y-132.91
X185.9Y-113.51
X186.2Y-149.71
X186.5Y-38.21
X186.5Y-48.21
X186.5Y-58.21
X186.6Y-139.91
X187.0Y-100.71
X187.3Y-127.01
X187.5Y-25.71
X187.5Y-27.71
X187.5Y-28.91
X187.5Y-38.21
X187.5Y-43.19
X187.5Y-48.21
X187.5Y-58.21
X188.0Y-39.21
X188.0Y-106.21
X188.0Y-121.21
X188.0Y-128.71
X188.5Y-25.71
X188.5Y-37.01
X189.0Y-39.21
X189.5Y-25.71
X189.5Y-69.21
X190.0Y-49.21
X190.5Y-69.21
X190.7Y-139.91
X191.0Y-49.21
X191.5Y-69.21
X191.5Y-114.71
X192.0Y-39.21
X192.0Y-49.21
X192.5Y-69.21
X193.5Y-69.21
X194.5Y-30.21
X194.5Y-31.71
X194.5Y-33.21
X194.5Y-34.71
X194.5Y-36.21
X194.5Y-40.21
X194.5Y-41.71
X194.5Y-43.21
X194.5Y-44.71
X194.5Y-46.21
X194.5Y-50.21
X194.5Y-51.71
X194.5Y-53.21
X194.5Y-54.71
X194.5Y-56.21
X195.6Y-106.61
X195.6Y-121.91
X195.6Y-129.21
X195.8Y-137.11
X196.0Y-24.71
X196.0Y-25.71
X196.0Y-30.21
X196.0Y-31.71
X196.0Y-33.21
X196.0Y-34.71
X196.0Y-36.21
X196.0Y-40.21
X196.0Y-41.71
X196.0Y-43.21
X196.0Y-44.71
X196.0Y-46.21
X196.0Y-50.21
X196.0Y-51.71
X196.0Y-53.21
X196.0Y-54.71
X196.0Y-56.21
X197.5Y-30.21
X197.5Y-31.71
X197.5Y-33.21
X197.5Y-34.71
X197.5Y-36.21
X197.5Y-40.21
X197.5Y-41.71
X197.5Y-43.21
X197.5Y-44.71
X197.5Y-46.21
X197.5Y-50.21
X197.5Y-51.71
X197.5Y-53.21
X197.5Y-54.71
X197.5Y-56.21
X197.7Y-140.01
X198.0Y-24.81
X199.0Y-30.21
X199.0Y-31.71
X199.0Y-33.21
X199.0Y-34.71
X199.0Y-36.21
X199.0Y-40.21
X199.0Y-41.71
X199.0Y-43.21
X199.0Y-44.71
X199.0Y-46.21
X199.0Y-50.21
X199.0Y-51.71
X199.0Y-53.21
X199.0Y-54.71
X199.0Y-56.21
X199.1Y-92.71
X200.5Y-30.21
X200.5Y-31.71
X200.5Y-33.21
X200.5Y-34.71
X200.5Y-36.21
X200.5Y-40.21
X200.5Y-41.71
X200.5Y-43.21
X200.5Y-44.71
X200.5Y-46.21
X200.5Y-50.21
X200.5Y-51.71
X200.5Y-53.21
X200.5Y-54.71
X200.5Y-56.21
X201.9Y-148.71
X202.5Y-34.21
X202.5Y-43.71
X202.5Y-44.61
X202.5Y-45.51
X202.8Y-56.31
X202.9Y-77.21
X202.9Y-79.21
X203.2Y-38.11
X204.0Y-86.71
X204.3Y-52.21
X204.3Y-54.21
X204.3Y-89.31
X204.7Y-49.81
X204.8Y-73.91
X204.8Y-74.81
X205.7Y-45.11
X205.7Y-73.91
X205.7Y-74.81
X206.1Y-86.71
X206.5Y-24.31
X207.1Y-72.11
X207.8Y-148.71
X208.0Y-27.21
X208.0Y-38.21
X208.0Y-48.21
X208.0Y-58.21
X209.0Y-27.21
X209.0Y-38.21
X209.0Y-39.21
X209.0Y-48.21
X209.0Y-58.21
X209.5Y-52.31
X209.5Y-145.21
X210.0Y-38.21
X210.0Y-48.21
X210.0Y-58.21
X210.5Y-44.21
X211.0Y-106.71
X211.0Y-129.21
X211.0Y-136.71
X211.4Y-114.41
X211.5Y-39.21
X211.5Y-121.71
X211.6Y-140.61
X212.5Y-25.71
X212.7Y-104.11
X213.0Y-22.21
X213.0Y-23.21
X213.1Y-145.21
X213.2Y-39.21
X213.8Y-126.01
X214.0Y-22.21
X214.0Y-130.21
X214.1Y-96.61
X214.1Y-110.71
X214.1Y-112.11
X214.3Y-119.71
X214.5Y-132.71
X214.8Y-47.71
X214.8Y-48.71
X214.8Y-49.71
X215.6Y-123.21
X216.0Y-63.21
X216.5Y-105.61
X216.5Y-145.21
X216.6Y-137.31
X217.0Y-30.21
X217.0Y-31.71
X217.0Y-33.21
X217.0Y-34.71
X217.0Y-36.21
X217.0Y-40.21
X217.0Y-41.71
X217.0Y-43.21
X217.0Y-44.71
X217.0Y-46.21
X217.0Y-50.21
X217.0Y-51.71
X217.0Y-53.21
X217.0Y-54.71
X217.0Y-56.21
X217.0Y-107.71
X217.3Y-127.51
X217.5Y-99.71
X217.7Y-79.21
X217.8Y-90.21
X217.9Y-118.51
X218.0Y-81.21
X218.0Y-112.21
X218.3Y-75.51
X218.5Y-30.21
X218.5Y-31.71
X218.5Y-33.21
X218.5Y-34.71
X218.5Y-36.21
X218.5Y-40.21
X218.5Y-41.71
X218.5Y-43.21
X218.5Y-44.71
X218.5Y-46.21
X218.5Y-50.21
X218.5Y-51.71
X218.5Y-53.21
X218.5Y-54.71
X218.5Y-56.21
X218.5Y-89.01
X219.0Y-110.61
X219.2Y-75.51
X219.2Y-119.61
X219.2Y-125.91
X219.4Y-130.11
X219.7Y-86.31
X220.0Y-30.21
X220.0Y-31.71
X220.0Y-33.21
X220.0Y-34.71
X220.0Y-36.21
X220.0Y-40.21
X220.0Y-41.71
X220.0Y-43.21
X220.0Y-44.71
X220.0Y-46.21
X220.0Y-50.21
X220.0Y-51.71
X220.0Y-53.21
X220.0Y-54.71
X220.0Y-56.21
X220.1Y-75.51
X220.7Y-85.21
X221.5Y-30.21
X221.5Y-31.71
X221.5Y-33.21
X221.5Y-34.71
X221.5Y-36.21
X221.5Y-40.21
X221.5Y-41.71
X221.5Y-43.21
X221.5Y-44.71
X221.5Y-46.21
X221.5Y-50.21
X221.5Y-51.71
X221.5Y-53.21
X221.5Y-54.71
X221.5Y-56.21
X221.8Y-86.51
X221.8Y-106.71
X221.8Y-122.21
X222.2Y-83.81
X222.5Y-25.71
X222.5Y-119.61
X222.6Y-63.91
X223.0Y-30.21
X223.0Y-31.71
X223.0Y-33.21
X223.0Y-34.71
X223.0Y-36.21
X223.0Y-40.21
X223.0Y-41.71
X223.0Y-43.21
X223.0Y-44.71
X223.0Y-46.21
X223.0Y-50.21
X223.0Y-51.71
X223.0Y-53.21
X223.0Y-54.71
X223.0Y-56.21
X224.0Y-25.71
X224.0Y-95.11
X225.1Y-65.61
X225.2Y-71.51
X225.4Y-80.21
X225.45Y-88.16
X225.5Y-25.71
X225.5Y-90.21
X227.6Y-85.21
X232.0Y-74.01
X232.1Y-58.61
X232.6Y-63.91
X232.7Y-49.01
X232.8Y-55.51
X232.8Y-56.31
X232.8Y-57.11
X233.3Y-97.41
X233.7Y-109.21
X233.9Y-99.51
X233.9Y-120.61
X234.0Y-85.91
X234.8Y-70.21
X235.2Y-132.21
X235.4Y-46.01
X235.4Y-49.61
X236.1Y-61.01
X236.3Y-67.11
X236.5Y-45.11
X236.5Y-46.81
X236.5Y-48.61
X236.6Y-59.71
X237.5Y-54.21
X237.5Y-55.21
X237.5Y-56.21
X237.8Y-51.41
X239.1Y-21.81
X239.5Y-42.21
X240.1Y-63.91
X240.5Y-22.71
X241.0Y-39.71
X241.5Y-22.71
X242.3Y-27.31
X242.3Y-28.31
X242.3Y-29.21
X242.5Y-52.71
X242.5Y-53.71
X242.5Y-54.71
X243.8Y-61.01
X244.1Y-63.91
X244.3Y-71.51
X245.0Y-43.31
X246.5Y-23.71
X246.6Y-44.51
X246.6Y-59.91
X246.9Y-86.51
X247.1Y-122.41
X247.2Y-130.71
X247.3Y-84.21
X247.4Y-107.71
X247.5Y-96.01
X247.8Y-45.31
X248.0Y-50.31
X248.0Y-158.71
X248.2Y-119.21
X248.9Y-46.01
X249.2Y-49.51
X249.2Y-59.61
X249.5Y-114.31
X249.8Y-47.01
X252.0Y-104.31
X252.0Y-105.31
X252.5Y-120.91
X252.9Y-104.31
X252.9Y-105.31
X254.1Y-63.91
X254.2Y-119.31
X254.975Y-97.985
X256.5Y-117.51
X256.5Y-119.11
X257.5Y-112.81
X257.75Y-76.71
X258.3Y-23.31
X258.4Y-80.21
X259.2Y-23.31
X259.3Y-54.51
X259.3Y-55.51
X260.0Y-114.31
X260.1Y-23.31
X260.3Y-54.51
X260.3Y-55.51
X261.0Y-92.21
X261.9Y-92.21
X261.9Y-93.11
X262.1Y-57.51
X264.1Y-63.91
X264.1Y-75.41
X264.3Y-71.51
X264.7Y-119.31
X266.0Y-32.71
X266.6Y-36.21
X266.6Y-57.51
X267.0Y-77.71
X267.0Y-79.21
X267.0Y-117.61
X267.0Y-119.11
X267.3Y-85.51
X267.3Y-94.91
X267.5Y-75.41
X267.5Y-159.51
X267.8Y-33.81
X268.0Y-112.81
X268.5Y-147.71
X268.7Y-73.41
X268.9Y-54.51
X268.9Y-55.51
X269.0Y-38.21
X269.5Y-158.21
X270.0Y-54.51
X270.0Y-55.51
X270.1Y-22.51
T2
X75.48Y-46.11
X75.48Y-134.61
X228.88Y-46.11
X228.88Y-134.61
T3
X36.0Y-26.71
X41.5Y-26.71
T4
X37.0Y-153.71
X44.0Y-153.71
X37.0Y-72.71
X44.0Y-72.71
X37.0Y-48.71
X44.0Y-48.71
X37.0Y-60.71
X44.0Y-60.71
T5
X268.2Y-47.71
T6
X131.0Y-108.61
X85.0Y-36.81
X66.0Y-108.61
T7
X115.0Y-100.31
X131.0Y-45.11
X40.0Y-38.06
X40.0Y-83.36
X153.5Y-38.06
X153.5Y-83.36
X85.0Y-100.31
X101.0Y-45.11
X50.0Y-100.31
X66.0Y-45.11
T0
M30
