G04 #@! TF.GenerationSoftware,KiCad,Pcbnew,5.1.5+dfsg1-2build2*
G04 #@! TF.CreationDate,2020-06-25T18:04:22+03:00*
G04 #@! TF.ProjectId,sdr-trx,7364722d-7472-4782-9e6b-696361645f70,A*
G04 #@! TF.SameCoordinates,Original*
G04 #@! TF.FileFunction,Profile,NP*
%FSLAX46Y46*%
G04 Gerber Fmt 4.6, Leading zero omitted, Abs format (unit mm)*
G04 Created by KiCad (PCBNEW 5.1.5+dfsg1-2build2) date 2020-06-25 18:04:22*
%MOMM*%
%LPD*%
G04 APERTURE LIST*
%ADD10C,0.050000*%
G04 APERTURE END LIST*
D10*
X271350000Y-147210000D02*
X271350000Y-93400000D01*
X269850000Y-147210000D02*
X271350000Y-147210000D01*
X271350000Y-156710000D02*
X269850000Y-156710000D01*
X271350000Y-162710000D02*
X271350000Y-156710000D01*
X269850000Y-147210000D02*
X269850000Y-156710000D01*
X271350000Y-33500000D02*
X271350000Y-87000000D01*
X271350000Y-24000000D02*
X271350000Y-18000000D01*
X269850000Y-33500000D02*
X271350000Y-33500000D01*
X269850000Y-24000000D02*
X271350000Y-24000000D01*
X269850000Y-24000000D02*
X269850000Y-33500000D01*
X269650000Y-93400000D02*
X271350000Y-93400000D01*
X269650000Y-87000000D02*
X271350000Y-87000000D01*
X269650000Y-87000000D02*
X269650000Y-93400000D01*
X271350000Y-162710000D02*
X158140000Y-162710000D01*
X158140000Y-153880000D02*
X158140000Y-162710000D01*
X146210000Y-153880000D02*
X158140000Y-153880000D01*
X146210000Y-162710000D02*
X146210000Y-153880000D01*
X158140000Y-18000000D02*
X271350000Y-18000000D01*
X158140000Y-26830000D02*
X158140000Y-18000000D01*
X146210000Y-26830000D02*
X158140000Y-26830000D01*
X146210000Y-18000000D02*
X146210000Y-26830000D01*
X33000000Y-162710000D02*
X146210000Y-162710000D01*
X34666666Y-162710000D02*
G75*
G03X34666666Y-162710000I-1666666J0D01*
G01*
X30500000Y-162710000D02*
X35500000Y-162710000D01*
X33000000Y-160210000D02*
X33000000Y-165210000D01*
X146210000Y-18000000D02*
X33000000Y-18000000D01*
X33000000Y-18000000D02*
X33000000Y-162710000D01*
M02*
